<?xml version="1.0" standalone="no"?>
<!DOCTYPE svg PUBLIC "-//W3C//DTD SVG 20010904//EN"
 "http://www.w3.org/TR/2001/REC-SVG-20010904/DTD/svg10.dtd">
<svg version="1.0" xmlns="http://www.w3.org/2000/svg"
 width="630.000000pt" height="630.000000pt" viewBox="0 0 630.000000 630.000000"
 preserveAspectRatio="xMidYMid meet">
<metadata>
Created by potrace 1.14, written by Peter Selinger 2001-2017
</metadata>
<g transform="translate(0.000000,630.000000) scale(0.100000,-0.100000)"
fill="#000000" stroke="none">
<path d="M1217 5586 c13 -61 25 -118 27 -126 7 -25 55 -154 67 -175 5 -12 11
-27 13 -35 1 -8 15 -40 31 -70 16 -30 30 -61 31 -69 2 -8 7 -17 12 -20 4 -3
17 -22 28 -41 10 -19 51 -78 91 -131 39 -54 74 -106 77 -117 9 -28 -22 -33
-59 -10 -16 10 -40 23 -52 29 -13 7 -23 16 -23 21 0 4 -7 8 -15 8 -8 0 -15 5
-15 10 0 6 -7 10 -15 10 -7 0 -19 8 -24 18 -6 9 -11 13 -11 9 0 -4 -11 2 -24
15 -12 13 -36 33 -52 46 -32 25 -214 201 -214 207 0 2 -16 21 -35 42 -47 50
-133 179 -185 276 -23 42 -44 77 -47 77 -11 0 7 -135 27 -215 12 -44 32 -105
46 -135 15 -30 33 -73 42 -95 9 -22 18 -42 22 -45 8 -7 64 -103 63 -110 0 -3
5 -9 12 -15 6 -5 42 -52 80 -102 38 -51 73 -93 77 -93 5 0 7 -4 4 -9 -4 -5 -2
-11 3 -13 5 -1 3 -11 -4 -22 -13 -17 -15 -17 -62 5 -26 13 -51 28 -54 32 -3 5
-8 7 -10 5 -8 -6 -347 200 -404 245 -5 4 -33 25 -62 46 -29 21 -49 41 -46 45
4 3 0 6 -8 6 -8 0 -41 27 -73 61 -33 33 -64 63 -69 66 -12 7 -3 -81 12 -120 6
-15 13 -39 15 -54 3 -14 11 -30 18 -35 7 -4 9 -8 5 -8 -5 0 0 -12 10 -27 10
-16 25 -40 32 -55 12 -23 65 -93 106 -138 26 -30 76 -70 85 -70 6 0 10 -4 10
-8 0 -5 12 -15 27 -23 15 -8 35 -21 44 -29 10 -8 25 -21 33 -28 35 -29 -25
-74 -61 -46 -10 7 -24 14 -31 14 -14 0 -213 95 -267 127 -25 15 -107 70 -160
108 -8 5 -16 7 -19 4 -15 -14 61 -202 88 -221 6 -4 7 -8 3 -8 -12 0 95 -115
147 -157 8 -7 19 -13 25 -13 5 0 11 -4 13 -9 5 -12 152 -91 171 -91 10 0 17
-4 17 -10 0 -5 3 -9 8 -8 4 1 38 -8 75 -21 37 -13 75 -24 85 -25 12 -2 17 -12
15 -35 0 -18 -4 -35 -8 -39 -13 -14 -410 -4 -594 14 -74 8 -136 12 -138 10 -6
-6 20 -49 37 -62 8 -7 28 -24 45 -38 36 -31 122 -78 185 -101 54 -19 51 -18
125 -34 33 -8 65 -14 70 -16 24 -5 45 -18 45 -27 0 -5 -6 -6 -12 -2 -10 6 -10
4 0 -8 11 -14 9 -18 -20 -26 -18 -6 -98 -18 -178 -27 -80 -9 -161 -18 -180
-21 -19 -3 -41 -6 -47 -7 -22 -1 -14 -15 25 -44 20 -15 39 -30 42 -33 11 -13
109 -49 175 -66 52 -12 120 -17 261 -19 177 -1 193 -3 213 -22 l22 -20 -28
-11 c-23 -10 -61 -20 -95 -28 -5 -1 -9 -2 -10 -4 -2 -1 -12 -3 -23 -5 -11 -2
-31 -6 -45 -9 -14 -3 -77 -17 -140 -32 -140 -31 -210 -53 -210 -64 0 -5 14
-17 30 -27 17 -9 30 -22 30 -27 0 -5 3 -6 7 -3 3 4 12 2 19 -3 6 -6 20 -13 30
-15 11 -3 44 -12 74 -21 42 -13 97 -17 230 -18 96 -1 191 2 210 6 19 4 56 10
81 14 41 5 47 4 51 -14 6 -21 -4 -28 -97 -67 -46 -19 -270 -92 -305 -100 -56
-11 -140 -41 -140 -49 0 -9 63 -58 80 -62 3 0 17 -6 33 -12 15 -7 38 -14 50
-16 12 -2 42 -9 66 -16 24 -6 91 -12 147 -13 57 -1 104 -6 104 -10 0 -5 4 -6
9 -3 5 3 11 0 14 -8 7 -19 -38 -40 -128 -60 -38 -9 -79 -18 -91 -21 -23 -5
-29 -35 -7 -35 7 0 13 -4 13 -8 0 -6 79 -51 100 -57 3 -1 30 -9 60 -18 30 -9
96 -20 145 -25 76 -6 90 -10 93 -26 3 -11 0 -16 -7 -12 -6 4 -14 0 -17 -8 -3
-9 -14 -16 -23 -16 -11 -1 -7 -7 13 -23 34 -25 30 -23 121 -41 80 -15 154 -12
206 8 38 15 52 12 62 -17 6 -16 17 -18 85 -16 42 1 97 -3 122 -10 24 -7 67
-14 95 -16 27 -2 57 -6 65 -8 66 -22 83 -26 90 -22 5 3 20 1 35 -5 15 -6 75
-12 134 -14 103 -4 157 4 217 35 15 8 27 8 41 0 15 -7 25 -6 41 5 19 13 22 12
41 -15 16 -22 26 -27 46 -24 14 3 22 10 18 16 -3 6 -1 7 6 3 15 -9 91 35 137
79 44 43 127 59 93 18 -15 -18 15 -18 67 0 60 21 133 22 140 3 10 -25 -3 -61
-35 -95 -16 -17 -27 -31 -24 -31 14 0 -168 -163 -187 -168 -19 -4 -76 -62 -62
-62 23 0 3 -19 -64 -61 -35 -23 -64 -44 -64 -49 0 -4 -10 -10 -22 -13 -12 -4
-19 -9 -16 -13 4 -3 -4 -16 -17 -28 -13 -11 -26 -31 -30 -43 -6 -22 -4 -22 45
-18 31 2 48 0 45 -6 -4 -5 -11 -7 -16 -4 -5 4 -9 2 -9 -3 0 -6 -25 -24 -55
-41 -31 -17 -86 -51 -123 -75 -37 -23 -71 -43 -76 -43 -5 -1 -12 -5 -15 -10
-7 -10 -123 -88 -131 -88 -3 0 -21 -10 -41 -23 -20 -12 -43 -22 -52 -22 -8 0
-17 -5 -19 -11 -2 -5 -10 -11 -18 -13 -8 -1 -42 -15 -75 -30 -99 -46 -225 -88
-262 -89 -7 0 -13 -5 -13 -11 1 -41 77 -65 201 -63 75 2 96 -1 96 -12 0 -7
-14 -20 -31 -27 -17 -8 -38 -18 -46 -24 -36 -22 -198 -92 -237 -103 -40 -10
-55 -29 -34 -41 19 -12 91 -21 176 -21 98 1 139 6 210 31 88 29 96 -2 14 -57
-60 -42 -67 -56 -31 -70 47 -19 196 5 309 48 12 5 14 1 8 -17 -7 -23 -92 -110
-107 -110 -21 0 -5 -29 20 -34 41 -10 181 12 221 33 10 6 23 4 34 -4 35 -26
204 10 237 50 7 8 17 15 22 15 5 0 17 7 25 16 12 12 18 12 23 3 5 -7 18 -9 36
-5 16 4 31 8 34 8 3 -1 21 9 40 21 35 21 137 117 125 117 -4 0 8 18 25 40 17
22 28 40 23 40 -4 0 -3 4 2 8 6 4 27 43 48 87 30 66 42 81 64 86 16 4 35 8 43
10 10 3 14 -3 14 -14 -1 -12 7 -20 27 -24 17 -3 35 -13 42 -22 9 -12 28 -16
71 -16 33 0 65 -5 71 -11 8 -9 15 -8 28 1 26 18 66 6 82 -25 16 -31 10 -98 -9
-97 -77 2 -116 -31 -116 -99 0 -51 23 -94 51 -94 22 0 32 19 38 71 1 10 39 18
59 12 12 -3 19 -15 20 -36 4 -57 13 -87 28 -87 13 0 19 -18 15 -47 -1 -7 3
-13 9 -13 5 0 10 3 11 8 2 25 9 46 17 54 5 5 6 26 2 47 -5 30 -3 44 11 62 10
13 19 18 19 11 0 -7 4 -11 9 -8 10 6 31 -40 35 -76 4 -35 14 -48 38 -48 16 0
19 -5 16 -24 -3 -14 -1 -31 4 -38 8 -10 9 -9 5 4 -3 9 -2 18 3 20 14 5 22 56
26 160 3 84 1 99 -16 121 -11 14 -20 28 -20 32 0 14 -43 45 -62 45 -33 0 -118
64 -118 90 0 5 -3 10 -7 10 -13 0 -12 52 0 65 8 9 19 10 35 4 13 -5 28 -7 33
-3 5 3 9 2 9 -3 0 -16 60 -36 73 -24 9 7 21 6 39 -3 15 -8 29 -12 32 -8 3 3 6
1 6 -5 0 -6 18 -8 44 -6 47 5 47 6 31 -50 -9 -34 2 -100 16 -91 6 3 8 23 4 48
l-6 41 28 -33 c32 -37 66 -36 59 2 -2 12 4 31 14 43 15 18 20 20 41 9 13 -6
26 -20 28 -31 2 -11 16 -31 32 -44 31 -25 37 -48 16 -57 -7 -2 -13 -13 -14
-23 -1 -16 2 -15 25 8 23 23 27 34 28 99 0 39 3 75 7 78 3 3 19 3 36 -1 28 -6
49 -35 37 -53 -2 -4 -1 -13 3 -20 5 -8 12 -6 24 8 9 11 14 20 12 20 -3 0 0 10
6 22 17 33 14 126 -6 148 -23 25 -63 31 -75 11 -5 -9 -12 -15 -17 -15 -4 1
-14 -1 -22 -4 -14 -5 -44 25 -36 38 5 9 -39 30 -63 30 -9 0 -31 -16 -48 -36
-29 -33 -34 -35 -55 -24 -34 19 -53 40 -84 94 -41 71 -38 129 16 302 17 54 32
106 34 114 18 77 31 93 86 112 30 10 63 20 74 22 11 3 85 21 165 41 129 32
173 39 299 48 20 2 35 -3 38 -10 3 -7 10 -10 16 -6 16 10 76 10 71 1 -6 -10 4
-9 31 1 12 5 38 2 65 -6 25 -8 52 -16 61 -17 36 -5 87 -47 93 -76 4 -25 10
-30 33 -30 29 1 73 30 73 49 0 6 4 11 9 11 28 0 42 258 14 267 -6 2 -9 18 -7
35 3 20 -2 39 -13 51 -10 11 -12 17 -5 13 6 -4 12 -3 12 2 0 6 -7 12 -15 16
-8 3 -15 12 -15 20 0 8 -5 18 -12 22 -7 5 -9 2 -4 -7 4 -8 -2 -2 -14 14 -12
15 -28 27 -35 27 -8 0 -17 5 -21 12 -5 7 -3 8 7 3 12 -8 12 -6 0 8 -7 9 -18
14 -23 11 -5 -3 -16 2 -24 12 -9 11 -12 13 -9 6 6 -11 3 -11 -16 0 -13 7 -27
18 -31 23 -5 6 -8 4 -8 -4 0 -9 -6 -7 -19 7 -18 22 -37 31 -26 12 3 -5 -12 0
-35 12 -22 12 -40 25 -40 30 0 4 -6 8 -14 8 -8 0 -18 9 -21 21 -5 16 -10 18
-21 8 -11 -9 -14 -9 -14 0 0 7 -3 10 -7 8 -21 -13 -30 25 -28 119 3 106 13
146 42 163 10 6 14 11 10 11 -4 0 9 15 30 32 21 18 42 39 46 45 4 7 15 13 22
13 8 0 15 4 15 8 0 5 21 24 48 42 26 19 53 40 60 47 7 7 20 13 28 13 8 0 12 5
9 10 -3 6 1 10 9 10 8 0 21 6 28 13 13 13 55 39 138 85 25 14 56 33 69 44 13
10 28 18 32 18 11 0 42 25 87 70 38 38 57 75 66 130 13 77 17 86 47 110 18 14
48 40 67 57 19 18 39 33 45 33 6 0 7 3 4 6 -3 4 8 21 26 39 18 18 39 42 47 52
29 38 60 82 60 88 0 3 5 11 10 18 22 26 59 87 53 87 -3 0 1 8 9 18 24 26 104
199 145 310 62 169 65 196 12 90 -17 -35 -35 -64 -40 -66 -5 -2 -9 -8 -9 -13
0 -11 -70 -107 -110 -153 -62 -69 -110 -117 -110 -110 0 5 -4 2 -10 -6 -7 -12
-12 -12 -29 4 -19 18 -19 19 29 109 68 130 77 148 93 182 8 17 22 45 32 63 9
18 18 38 19 45 2 7 6 19 9 27 26 61 66 216 74 280 3 25 9 65 13 90 12 68 7
253 -7 257 -7 3 -14 -14 -19 -44 -10 -58 -8 -51 -23 -88 -7 -16 -14 -38 -16
-47 -2 -9 -9 -27 -16 -40 -7 -13 -11 -23 -10 -23 2 0 -4 -18 -13 -40 -10 -22
-16 -40 -14 -41 2 0 -3 -8 -11 -17 -7 -10 -10 -17 -7 -17 9 0 -25 -62 -39 -72
-5 -4 -7 -8 -3 -8 4 0 -9 -35 -28 -77 -50 -109 -57 -127 -56 -135 1 -5 -3 -8
-8 -8 -6 0 -10 -9 -10 -20 0 -11 -4 -20 -10 -20 -5 0 -10 -9 -10 -20 0 -11 -4
-20 -9 -20 -5 0 -12 -11 -15 -25 -4 -14 -11 -25 -17 -25 -6 0 -8 -4 -5 -9 3
-5 -2 -19 -12 -32 -10 -13 -24 -36 -31 -51 -8 -16 -18 -28 -23 -28 -4 0 -8 -6
-8 -13 0 -8 -8 -24 -19 -36 -10 -12 -29 -36 -42 -54 -12 -17 -52 -59 -88 -91
-56 -52 -65 -57 -71 -41 -7 20 8 75 23 86 5 3 9 10 9 15 2 23 11 44 19 44 5 0
8 3 7 8 -3 9 18 67 38 105 9 15 12 27 9 27 -3 0 -1 9 5 21 6 11 13 28 15 37 2
9 15 62 30 117 14 55 28 111 30 125 6 33 13 69 20 100 3 14 7 36 10 50 3 14 9
48 15 75 5 28 12 62 15 78 3 15 8 39 11 55 8 39 -12 17 -28 -32 -7 -22 -18
-41 -24 -43 -12 -4 -25 30 -30 76 -7 58 -29 67 -70 26 -14 -14 -28 -25 -32
-25 -9 0 -63 -81 -102 -153 -17 -32 -37 -86 -45 -119 -7 -33 -16 -62 -19 -65
-3 -3 -14 15 -25 41 -14 30 -26 46 -38 46 -22 -1 -95 -54 -86 -64 3 -3 1 -6
-5 -6 -25 0 -145 -188 -145 -227 0 -7 -2 -13 -4 -13 -5 0 -36 75 -34 84 4 18
-55 -7 -91 -40 -21 -19 -36 -34 -33 -34 2 0 -6 -11 -18 -24 -41 -45 -45 -52
-54 -106 -10 -54 -13 -57 -38 -26 -23 29 -25 29 -91 13 -26 -7 -114 -53 -114
-60 0 -4 -4 -6 -9 -2 -5 3 -15 -1 -23 -8 -7 -7 -33 -25 -58 -40 -25 -15 -41
-27 -37 -27 5 0 -5 -12 -22 -26 -17 -14 -31 -32 -31 -39 0 -8 -23 -20 -51 -29
-57 -16 -179 -94 -179 -113 0 -6 -8 -14 -18 -17 -10 -4 -25 -22 -32 -42 -10
-25 -27 -42 -55 -56 -22 -11 -51 -28 -65 -38 -14 -9 -43 -21 -65 -25 -22 -4
-56 -14 -75 -23 -19 -8 -38 -16 -42 -16 -17 -2 -99 -83 -109 -108 -6 -15 -24
-34 -39 -42 -29 -14 -33 -12 -45 24 -1 3 -7 19 -14 35 -6 17 -21 55 -33 85
-31 78 -56 120 -99 162 -20 20 -34 40 -31 43 3 3 0 5 -6 5 -6 0 -26 15 -45 33
-69 67 -167 125 -240 143 -15 3 -30 10 -33 15 -3 5 -10 7 -15 4 -5 -4 -9 -2
-9 3 0 5 -6 9 -12 9 -18 1 -164 50 -213 72 -22 10 -67 29 -100 42 -33 13 -63
28 -66 32 -3 5 -9 8 -13 7 -3 0 -27 8 -52 20 -26 11 -50 20 -53 20 -4 0 -13 6
-19 13 -7 6 -16 12 -20 13 -11 1 -149 71 -217 109 -73 41 -84 43 -77 10 2 -14
8 -25 13 -25 5 0 9 -4 9 -8 0 -5 23 -33 50 -62 71 -73 60 -93 -30 -56 -25 10
-47 18 -50 19 -8 1 -142 78 -154 88 -6 5 -48 36 -93 69 -45 34 -98 76 -118 95
-19 19 -35 33 -35 30 0 -2 -11 6 -24 18 -13 12 -30 27 -38 33 -26 22 -194 200
-228 243 -19 24 -41 49 -47 56 -7 8 -13 16 -13 20 0 3 -13 20 -30 38 -16 18
-30 37 -30 44 0 6 -4 13 -9 15 -10 4 -106 150 -127 193 -8 18 -21 32 -28 32
-10 0 -7 -26 11 -111z m2193 -3533 c0 -8 12 -37 26 -66 31 -60 47 -110 33
-102 -5 4 -9 1 -9 -6 0 -7 -3 -10 -6 -6 -9 9 -44 -25 -38 -37 3 -6 -1 -3 -9 6
-8 10 -17 15 -20 11 -4 -3 -7 -1 -7 6 0 7 -4 10 -9 6 -18 -10 -22 15 -10 57 7
24 16 48 20 53 3 6 6 28 5 51 -1 27 3 41 12 41 6 0 12 -6 12 -14z"/>
<path d="M5630 5400 c0 -5 5 -10 10 -10 6 0 10 5 10 10 0 6 -4 10 -10 10 -5 0
-10 -4 -10 -10z"/>
<path d="M3790 1150 c-8 -5 -12 -12 -9 -15 4 -3 12 1 19 10 14 17 11 19 -10 5z"/>
</g>
</svg>
